<svg width="12" height="12" viewBox="0 0 12 12" fill="none" xmlns="http://www.w3.org/2000/svg">
<g clip-path="url(#clip0_26_307)">
<path fill-rule="evenodd" clip-rule="evenodd" d="M6 0C2.68629 0 0 2.68629 0 6C0 9.31371 2.68629 12 6 12C9.31371 12 12 9.31371 12 6C12 2.68629 9.31371 0 6 0ZM8.31562 4.71994C8.50081 4.46067 8.44076 4.10035 8.18148 3.91515C7.92221 3.72996 7.56189 3.79001 7.37669 4.04929L5.46484 6.72587L4.56179 5.82282C4.33649 5.59752 3.9712 5.59752 3.7459 5.82282C3.5206 6.04813 3.5206 6.41341 3.7459 6.63872L5.13052 8.02333C5.25043 8.14325 5.41704 8.20433 5.58605 8.19034C5.75506 8.17635 5.90935 8.08871 6.00792 7.95071L8.31562 4.71994Z" fill="#038A00"/>
</g>
<defs>
<clipPath id="clip0_26_307">
<rect width="12" height="12" fill="white"/>
</clipPath>
</defs>
</svg>
