<svg width="12" height="12" viewBox="0 0 12 12" fill="none" xmlns="http://www.w3.org/2000/svg">
<path fill-rule="evenodd" clip-rule="evenodd" d="M4.49487 1.86934C5.16357 0.71022 6.83643 0.71022 7.50513 1.86934L11.7649 9.25318C12.4332 10.4117 11.5972 11.8593 10.2598 11.8593H1.74024C0.402845 11.8593 -0.433214 10.4117 0.235114 9.25318L4.49487 1.86934ZM6.62563 4.91035C6.62563 4.6104 6.38248 4.36725 6.08254 4.36725C5.7826 4.36725 5.53946 4.6104 5.53946 4.91035V7.3938C5.53946 7.69375 5.7826 7.93691 6.08254 7.93691C6.38248 7.93691 6.62563 7.69375 6.62563 7.3938V4.91035ZM6.08254 8.83746C5.7826 8.83746 5.53946 9.08062 5.53946 9.38056V9.38553C5.53946 9.68548 5.7826 9.92863 6.08254 9.92863H6.08689C6.38682 9.92863 6.62997 9.68548 6.62997 9.38553V9.38056C6.62997 9.08062 6.38682 8.83746 6.08689 8.83746H6.08254Z" fill="#EE0000"/>
</svg>
