<svg width="20" height="20" viewBox="0 0 20 20" fill="none" xmlns="http://www.w3.org/2000/svg">
<path fill-rule="evenodd" clip-rule="evenodd" d="M2.05742 2.05806C2.3015 1.81398 2.69723 1.81398 2.94131 2.05806L5.28068 4.39744C6.667 3.58848 8.27982 3.125 9.99935 3.125C14.2467 3.125 17.8328 5.94899 18.9856 9.8204C19.0203 9.93673 19.0203 10.0606 18.9857 10.177C18.4238 12.0659 17.2835 13.7043 15.7709 14.8877L17.9413 17.0581C18.1854 17.3021 18.1854 17.6979 17.9413 17.9419C17.6972 18.186 17.3015 18.186 17.0574 17.9419L2.05742 2.94194C1.81335 2.69786 1.81335 2.30214 2.05742 2.05806ZM14.8795 13.9962C16.2034 12.9998 17.2126 11.6085 17.7323 9.99886C16.6774 6.73481 13.6132 4.375 9.99935 4.375C8.62579 4.375 7.33305 4.71538 6.19954 5.31629L8.27607 7.39282C8.76998 7.06583 9.36271 6.875 9.99936 6.875C11.7253 6.875 13.1244 8.27411 13.1244 10C13.1244 10.6367 12.9335 11.2294 12.6065 11.7233L14.8795 13.9962ZM11.6918 10.8085C11.8089 10.5637 11.8744 10.2897 11.8744 10C11.8744 8.96447 11.0349 8.125 9.99936 8.125C9.70967 8.125 9.43562 8.19044 9.19086 8.30761L11.6918 10.8085ZM3.71962 6.37497C3.98316 6.5979 4.01607 6.99226 3.79315 7.25579C3.11776 8.0542 2.59404 8.98409 2.26568 10.0011C3.32053 13.2652 6.38478 15.625 9.99861 15.625C10.7677 15.625 11.5108 15.5183 12.2145 15.3193C12.5467 15.2254 12.8921 15.4185 12.986 15.7507C13.0799 16.0828 12.8868 16.4282 12.5546 16.5222C11.7414 16.7521 10.8838 16.875 9.99861 16.875C5.75127 16.875 2.16513 14.051 1.01232 10.1796C0.977682 10.0633 0.977663 9.93938 1.01227 9.82304C1.38578 8.56734 2.01495 7.42242 2.8388 6.4485C3.06173 6.18496 3.45609 6.15204 3.71962 6.37497Z" fill="#141413"/>
</svg>
