<svg width="20" height="20" viewBox="0 0 20 20" fill="none" xmlns="http://www.w3.org/2000/svg">
<path fill-rule="evenodd" clip-rule="evenodd" d="M10.0012 4.375C6.41171 4.375 3.36432 6.70311 2.28975 9.93346C2.27493 9.97803 2.27494 10.0265 2.28979 10.071C3.36569 13.2991 6.41192 15.625 9.99978 15.625C13.5893 15.625 16.6367 13.2969 17.7113 10.0665C17.7261 10.022 17.7261 9.97352 17.7112 9.92896C16.6353 6.70094 13.5891 4.375 10.0012 4.375ZM1.10365 9.53891C2.34303 5.81309 5.85741 3.125 10.0012 3.125C14.1432 3.125 17.6562 5.8106 18.8971 9.53371C18.9974 9.8346 18.9975 10.1601 18.8974 10.4611C17.658 14.1869 14.1436 16.875 9.99978 16.875C5.85787 16.875 2.34484 14.1894 1.10393 10.4663C1.00364 10.1654 1.00355 9.83986 1.10365 9.53891ZM10.0006 8.125C8.96503 8.125 8.12557 8.96447 8.12557 10C8.12557 11.0355 8.96503 11.875 10.0006 11.875C11.0361 11.875 11.8756 11.0355 11.8756 10C11.8756 8.96447 11.0361 8.125 10.0006 8.125ZM6.87557 10C6.87557 8.27411 8.27468 6.875 10.0006 6.875C11.7265 6.875 13.1256 8.27411 13.1256 10C13.1256 11.7259 11.7265 13.125 10.0006 13.125C8.27468 13.125 6.87557 11.7259 6.87557 10Z" fill="#141413"/>
</svg>
